<svg id="Layer_1" data-name="Layer 1" xmlns="http://www.w3.org/2000/svg" viewBox="0 0 133.55 20.37"><defs><style>.cls-1{fill:#4e738a;}.cls-2{fill:#231f20;}</style></defs><title>marjason-tech-logo</title><path class="cls-1" d="M.09,8.32C.09,7,0,5.85,0,4.88H2.84L3,6.36H3A3.71,3.71,0,0,1,6.29,4.64a3,3,0,0,1,3,1.85h0a4.74,4.74,0,0,1,1.41-1.32,4.14,4.14,0,0,1,2.05-.53c2.07,0,3.63,1.45,3.63,4.67v6.33H13.11V9.81c0-1.56-.5-2.46-1.58-2.46A1.67,1.67,0,0,0,10,8.51a3.4,3.4,0,0,0-.11.84v6.29H6.6v-6C6.6,8.27,6.12,7.35,5,7.35A1.7,1.7,0,0,0,3.48,8.54a2.23,2.23,0,0,0-.14.85v6.25H.09Z"/><path class="cls-1" d="M28,13.05a14,14,0,0,0,.18,2.59h-3l-.19-1.08h-.07a3.86,3.86,0,0,1-3.08,1.32,3.3,3.3,0,0,1-3.48-3.3c0-2.79,2.51-4.11,6.32-4.11V8.34c0-.57-.31-1.39-2-1.39a6.37,6.37,0,0,0-3,.79l-.62-2.13a8.84,8.84,0,0,1,4.18-1C26.84,4.64,28,6.75,28,9.29Zm-3.23-2.49c-1.76,0-3.13.42-3.13,1.69a1.21,1.21,0,0,0,1.32,1.28,1.85,1.85,0,0,0,1.74-1.23,2.17,2.17,0,0,0,.07-.57Z"/><path class="cls-1" d="M30.62,8.43c0-1.59,0-2.62-.08-3.55H33.4l.13,2h.09a3.12,3.12,0,0,1,2.9-2.25,2.91,2.91,0,0,1,.7.07V7.85a5.35,5.35,0,0,0-.9-.08A2.13,2.13,0,0,0,34,9.46a4.14,4.14,0,0,0-.06.75v5.43H30.62Z"/><path class="cls-1" d="M36.78,17.75a3,3,0,0,0,2-.7c.49-.51.66-1.36.66-3.5V4.88h3.35v9.46c0,2.36-.51,3.79-1.52,4.71a6.18,6.18,0,0,1-4.14,1.32ZM41.05,3.56a1.65,1.65,0,0,1-1.74-1.67,1.78,1.78,0,0,1,3.55,0,1.66,1.66,0,0,1-1.79,1.67Z"/><path class="cls-1" d="M54.34,13.05a14.11,14.11,0,0,0,.17,2.59h-3l-.2-1.08h-.06a3.89,3.89,0,0,1-3.08,1.32,3.3,3.3,0,0,1-3.48-3.3c0-2.79,2.51-4.11,6.32-4.11V8.34C51,7.77,50.69,7,49,7a6.37,6.37,0,0,0-3,.79l-.62-2.13a8.81,8.81,0,0,1,4.18-1c3.59,0,4.71,2.11,4.71,4.65ZM51.1,10.56c-1.76,0-3.12.42-3.12,1.69a1.2,1.2,0,0,0,1.32,1.28A1.85,1.85,0,0,0,51,12.3a2.69,2.69,0,0,0,.06-.57Z"/><path class="cls-1" d="M57,12.72a6.56,6.56,0,0,0,2.88.79c1,0,1.43-.33,1.43-.88s-.33-.84-1.56-1.23c-2.24-.75-3.1-2-3.08-3.22,0-2,1.72-3.54,4.38-3.54a7.06,7.06,0,0,1,3,.64l-.57,2.29A5.72,5.72,0,0,0,61.14,7c-.82,0-1.28.33-1.28.86s.42.79,1.74,1.23c2,.71,2.88,1.74,2.9,3.31,0,2-1.56,3.49-4.64,3.49a7.63,7.63,0,0,1-3.48-.77Z"/><path class="cls-1" d="M71.5,15.88a5.27,5.27,0,0,1-5.57-5.54,5.38,5.38,0,0,1,5.77-5.7,5.23,5.23,0,0,1,5.47,5.52,5.38,5.38,0,0,1-5.65,5.72Zm.09-2.39c1.32,0,2.13-1.3,2.13-3.24C73.72,8.67,73.1,7,71.59,7s-2.2,1.63-2.2,3.23c0,1.83.77,3.22,2.18,3.22Z"/><path class="cls-1" d="M79.24,8.32c0-1.35,0-2.47-.08-3.44h2.9l.15,1.5h.07A3.88,3.88,0,0,1,85.6,4.64c2.2,0,3.85,1.48,3.85,4.65v6.35H86.11v-6c0-1.39-.49-2.33-1.7-2.33A1.83,1.83,0,0,0,82.7,8.6a2.38,2.38,0,0,0-.11.84v6.2H79.24Z"/><path class="cls-2" d="M99.51,2.75V5.08h3v.86h-3V12.8c0,1.35.42,2.18,1.54,2.18a3.87,3.87,0,0,0,1.21-.15l.13.79a4.18,4.18,0,0,1-1.47.24,2.24,2.24,0,0,1-1.8-.72,3.84,3.84,0,0,1-.66-2.53V5.94H96.68V5.08h1.78V3.15Z"/><path class="cls-2" d="M104.88,10.25c0,3.37,1.85,4.71,4,4.71a6.18,6.18,0,0,0,2.92-.59l.27.81a7,7,0,0,1-3.32.68c-3,0-4.93-2.2-4.93-5.3,0-3.52,2-5.72,4.75-5.72,3.45,0,4.11,3.26,4.11,4.78a2.94,2.94,0,0,1,0,.63Zm6.73-.83c0-1.48-.59-3.7-3.14-3.7-2.34,0-3.33,2.07-3.52,3.7Z"/><path class="cls-2" d="M122.68,15.18a7.19,7.19,0,0,1-3.1.68c-3,0-5.06-2.22-5.06-5.39a5.57,5.57,0,0,1,8.2-5l-.37.86a4.73,4.73,0,0,0-2.49-.62c-2.83,0-4.29,2.16-4.29,4.64,0,2.78,1.74,4.58,4.18,4.58a5.75,5.75,0,0,0,2.64-.62Z"/><path class="cls-2" d="M125.21,0h1.05V7h0a3.9,3.9,0,0,1,1.43-1.51,4,4,0,0,1,2.13-.62c1,0,3.68.51,3.68,4.45v6.35h-1.06V9.39c0-1.89-.75-3.63-2.9-3.63a3.49,3.49,0,0,0-3.19,2.38,3.1,3.1,0,0,0-.14,1.06v6.44h-1.05Z"/></svg>